<svg width="824" height="549" viewBox="0 0 824 549" fill="none" xmlns="http://www.w3.org/2000/svg">
<g filter="url(#filter0_d_13_1112)">
<path d="M59.1083 218.227C61 217.087 63.036 216.204 65.1619 215.603L66.4034 209.63L76.5111 209.443L78.0053 215.384C80.1471 215.908 82.209 216.717 84.1359 217.788L89.2447 214.494L96.5179 221.521L93.3537 226.737C94.4948 228.624 95.3779 230.655 95.9795 232.776L101.956 234.028L102.143 244.129L96.1993 245.579C95.6764 247.723 94.8672 249.788 93.7932 251.717L97.0892 256.822L90.0907 264.036L84.872 260.874C82.9818 262.01 80.9501 262.892 78.8293 263.498L77.5769 269.471L67.4691 269.647L66.0189 263.718C63.8726 263.191 61.8069 262.379 59.8773 261.302L54.7575 264.618L47.4844 257.602L50.6485 252.386C49.5117 250.493 48.6289 248.459 48.0227 246.336L42.046 245.096L41.8702 234.994L47.803 233.534C48.3326 231.395 49.1415 229.335 50.2091 227.407L46.9131 222.301L53.9335 215.032L59.1522 218.195L59.1083 218.227ZM64.5027 231.678C63.0193 233.222 62.0265 235.17 61.6497 237.277C61.2729 239.385 61.5289 241.556 62.3854 243.518C63.2419 245.48 64.6606 247.144 66.4625 248.301C68.2644 249.459 70.3688 250.056 72.5103 250.02C74.6518 249.983 76.7344 249.313 78.4956 248.095C80.2567 246.877 81.6175 245.165 82.4062 243.175C83.1949 241.185 83.3763 239.006 82.9274 236.913C82.4786 234.82 81.4196 232.907 79.8841 231.414C78.859 230.418 77.647 229.635 76.3177 229.108C74.9884 228.582 73.5681 228.324 72.1385 228.348C70.709 228.373 69.2984 228.68 67.9879 229.251C66.6775 229.823 65.493 230.647 64.5027 231.678Z" fill="#EBEBEB"/>
<path d="M73.9952 72.0068C75.887 70.8662 77.9229 69.9837 80.0489 69.3826L81.3013 63.3985L91.4091 63.2228L92.8593 69.174C95 69.7071 97.0612 70.5193 98.9899 71.5896L104.099 68.2407L111.372 75.2679L108.208 80.4834C109.349 82.3702 110.232 84.4013 110.833 86.5224L116.821 87.7741L116.997 97.8757L111.053 99.3251C110.529 101.452 109.719 103.498 108.647 105.408L111.943 110.525L104.912 117.793L99.693 114.62C97.8074 115.765 95.7745 116.648 93.6503 117.244L92.3979 123.229L82.2901 123.404L80.8948 117.486C78.7501 116.955 76.685 116.143 74.7533 115.07L69.6445 118.364L62.3713 111.348L65.5465 106.122C64.4019 104.235 63.5151 102.204 62.9097 100.083L56.9329 98.8419L56.7571 88.7404L62.6899 87.28C63.225 85.1726 64.0378 83.1455 65.107 81.252L61.811 76.1463L68.7765 68.8446L73.9952 72.0068ZM79.3897 85.4683C77.9073 87.0133 76.916 88.9625 76.5407 91.0698C76.1654 93.1772 76.423 95.3485 77.2809 97.3097C78.1388 99.271 79.5587 100.934 81.3614 102.09C83.1641 103.246 85.2689 103.842 87.4104 103.804C89.5519 103.766 91.634 103.095 93.3943 101.876C95.1546 100.656 96.5141 98.9431 97.3014 96.9525C98.0887 94.9618 98.2686 92.7828 97.8182 90.6901C97.3679 88.5975 96.3076 86.685 94.771 85.1938C93.7459 84.197 92.5335 83.413 91.2037 82.8869C89.8739 82.3608 88.4531 82.1031 87.0231 82.1286C85.5931 82.1541 84.1824 82.4624 82.8722 83.0356C81.5621 83.6088 80.3784 84.4356 79.3897 85.4683Z" fill="#EBEBEB"/>
<path d="M294.597 128.719C296.875 127.339 299.329 126.272 301.892 125.545L303.397 118.32L315.603 118.112L317.361 125.271C319.948 125.906 322.439 126.885 324.766 128.181L330.94 124.14L339.73 132.616L335.906 138.919C337.282 141.199 338.35 143.65 339.082 146.21L346.3 147.714L346.519 159.913L339.345 161.67C338.714 164.257 337.735 166.746 336.434 169.07L340.477 175.241L332.006 184.025L325.7 180.204C323.415 181.579 320.958 182.646 318.394 183.377L316.888 190.591L304.682 190.81L302.924 183.64C300.337 183.006 297.846 182.028 295.519 180.731L289.356 184.771L280.567 176.295L284.39 169.992C283.008 167.716 281.94 165.264 281.215 162.702L273.986 161.197L273.777 148.999L280.94 147.242C281.584 144.659 282.563 142.171 283.852 139.841L279.808 133.682L288.29 124.898L294.597 128.73V128.719ZM301.101 144.936C299.302 146.798 298.095 149.151 297.635 151.698C297.174 154.245 297.479 156.871 298.511 159.245C299.544 161.619 301.257 163.633 303.435 165.034C305.613 166.434 308.157 167.158 310.747 167.114C313.336 167.069 315.854 166.258 317.983 164.784C320.111 163.309 321.754 161.237 322.704 158.829C323.655 156.421 323.869 153.786 323.321 151.256C322.773 148.727 321.486 146.417 319.624 144.618C317.125 142.207 313.77 140.886 310.296 140.946C306.823 141.005 303.516 142.441 301.101 144.936Z" fill="#EBEBEB"/>
<path d="M128.368 49.41C129.323 48.8266 130.355 48.3794 131.433 48.0814L132.06 45.018L137.169 44.9302L137.905 47.9277C138.987 48.1955 140.029 48.6053 141.003 49.1465L143.585 47.4556L147.221 51.035L145.617 53.6812C146.197 54.6339 146.644 55.6608 146.947 56.7337L149.968 57.3595L150.056 62.4652L147.057 63.2009C146.792 64.2835 146.382 65.3252 145.837 66.2972L147.529 68.8885L143.98 72.5558L141.343 70.9528C140.392 71.5344 139.364 71.9815 138.289 72.2813L137.663 75.3118L132.543 75.3997L131.84 72.4021C130.758 72.1344 129.716 71.7245 128.742 71.1833L126.16 72.8743L122.479 69.3277L124.149 66.6815C123.56 65.7466 123.094 64.7389 122.765 63.684L119.755 63.0032L119.667 57.8975L122.666 57.1619C122.93 56.0793 123.341 55.0376 123.886 54.0655L122.194 51.4742L125.742 47.8069L128.379 49.41H128.368ZM131.093 56.2066C130.336 56.9868 129.828 57.9737 129.633 59.0426C129.438 60.1114 129.565 61.2141 129.997 62.211C130.429 63.2078 131.148 64.0541 132.062 64.6426C132.976 65.2311 134.044 65.5354 135.131 65.5169C136.218 65.4985 137.275 65.1581 138.168 64.5389C139.061 63.9197 139.751 63.0495 140.149 62.0385C140.547 61.0275 140.636 59.9212 140.405 58.8596C140.174 57.798 139.632 56.8288 138.849 56.0749C137.802 55.0663 136.398 54.5138 134.944 54.5385C133.49 54.5632 132.105 55.1631 131.093 56.2066Z" fill="#EBEBEB"/>
<path fill-rule="evenodd" clip-rule="evenodd" d="M668.78 85.8636C668.78 86.2424 668.668 86.6126 668.457 86.9273C668.246 87.2419 667.946 87.4868 667.595 87.6307C667.245 87.7746 666.859 87.8112 666.488 87.7356C666.116 87.6601 665.776 87.476 665.509 87.2066C665.243 86.9372 665.062 86.5947 664.991 86.2227C664.92 85.8506 664.961 85.4658 665.109 85.1171C665.257 84.7684 665.505 84.4716 665.823 84.2643C666.14 84.0571 666.512 83.9487 666.891 83.9531C667.394 83.9589 667.874 84.1627 668.228 84.5204C668.582 84.878 668.78 85.3607 668.78 85.8636Z" fill="#E0E0E0"/>
<path fill-rule="evenodd" clip-rule="evenodd" d="M718.231 54.2302C718.233 54.609 718.123 54.9799 717.914 55.2958C717.704 55.6116 717.406 55.8582 717.056 56.0042C716.707 56.1501 716.321 56.1889 715.949 56.1155C715.578 56.0422 715.236 55.86 714.968 55.5921C714.7 55.3243 714.518 54.9828 714.444 54.6112C714.371 54.2396 714.41 53.8545 714.556 53.505C714.702 53.1555 714.948 52.8572 715.264 52.6481C715.58 52.439 715.952 52.3285 716.331 52.3307C716.835 52.3307 717.318 52.5308 717.675 52.8871C718.031 53.2433 718.231 53.7264 718.231 54.2302Z" fill="#E0E0E0"/>
<path d="M659.277 440.298C659.277 440.298 659.277 439.771 659.277 438.75C659.277 437.729 659.277 436.202 659.277 434.215C659.277 430.218 659.277 424.333 659.277 416.757C659.277 401.561 659.277 379.557 659.189 352.282C659.189 297.701 659.189 222.005 659.101 137.492V137.426V137.36C661.573 132.452 664.243 127.17 666.913 121.856V121.988V85.8636L667.198 86.1381L416.406 85.9844L416.527 85.8636C416.527 97.4585 416.527 106.363 416.527 112.369C416.527 115.363 416.527 117.632 416.527 119.177C416.527 120.703 416.527 121.483 416.527 121.483C416.527 121.483 416.527 120.703 416.527 119.177C416.527 117.651 416.527 115.367 416.527 112.369C416.527 106.363 416.527 97.4585 416.461 85.8636V85.7318H416.592L667.385 85.5781H667.66V85.8636C667.66 97.2389 667.66 108.922 667.66 120.868V121.966V122.032L659.53 137.579V137.448C659.53 221.994 659.464 297.657 659.442 352.238C659.442 379.513 659.376 401.517 659.354 416.713C659.354 424.3 659.354 430.174 659.354 434.171C659.354 436.159 659.354 437.685 659.354 438.706C659.354 439.727 659.277 440.298 659.277 440.298Z" fill="#E0E0E0"/>
<path d="M708.53 223.179C708.53 223.179 708.53 222.62 708.53 221.532C708.53 220.445 708.475 218.831 708.431 216.723C708.354 212.496 708.245 206.292 708.102 198.332C707.849 182.4 707.486 159.474 707.003 131.453C709.794 124.015 712.723 116.212 715.792 108.043V108.131C715.792 91.7379 715.792 73.588 715.792 54.4059L716.067 54.6804H645.752H529.294H529.14L529.063 54.5377L522.152 39.9233L522.372 40.055L443.708 39.9562L421.734 39.8903H415.966H413.989C413.989 39.8903 414.659 39.8903 415.966 39.8903H421.734L443.708 39.8245L522.372 39.7256H522.515L522.581 39.8574L529.557 54.2302L529.327 54.0875H645.785H716.331V54.362C716.331 73.544 716.331 91.694 716.331 108.087L707.541 131.475V131.387C707.904 159.419 708.201 182.345 708.409 198.277C708.497 206.237 708.574 212.441 708.618 216.668C708.618 218.777 708.618 220.38 708.618 221.478C708.552 222.62 708.53 223.179 708.53 223.179Z" fill="#E0E0E0"/>
<path d="M694.83 235.455C694.83 235.455 694.83 234.84 694.753 233.632C694.676 232.425 694.676 230.635 694.61 228.307C694.5 223.608 694.335 216.712 694.116 207.862C693.709 190.13 693.127 164.568 692.413 133.198L702.74 109.042V109.13C703.059 95.9542 703.41 81.6802 703.773 66.6486L704.037 66.9121H582.359L384.808 66.8353L384.962 66.7804L368.91 82.6904H368.833L315.317 82.2841L301.035 82.1304H297.343H296.102H297.343H301.035H315.317L368.746 82.4269H368.614C373.609 77.42 378.952 72.0691 384.643 66.3741L384.698 66.3082H384.786L582.337 66.2314H704.015H704.278V66.5059C703.905 81.4826 703.531 95.7676 703.18 108.987C699.565 117.42 696.093 125.457 692.808 133.143V133.056C693.445 164.436 693.907 190.009 694.313 207.72C694.478 216.57 694.61 223.465 694.698 228.164C694.698 230.492 694.764 232.282 694.775 233.49C694.786 234.697 694.83 235.455 694.83 235.455Z" fill="#E0E0E0"/>
<path fill-rule="evenodd" clip-rule="evenodd" d="M299.398 81.8559C299.398 82.2338 299.286 82.6031 299.075 82.9173C298.865 83.2315 298.567 83.4764 298.218 83.621C297.868 83.7656 297.484 83.8034 297.113 83.7297C296.742 83.656 296.402 83.474 296.134 83.2068C295.867 82.9397 295.685 82.5992 295.611 82.2286C295.537 81.858 295.575 81.4739 295.72 81.1248C295.864 80.7757 296.11 80.4773 296.424 80.2674C296.738 80.0574 297.108 79.9454 297.486 79.9454C297.737 79.9439 297.987 79.9923 298.219 80.0878C298.452 80.1833 298.663 80.324 298.841 80.5017C299.019 80.6794 299.16 80.8906 299.255 81.1231C299.351 81.3555 299.399 81.6046 299.398 81.8559Z" fill="#E0E0E0"/>
<path fill-rule="evenodd" clip-rule="evenodd" d="M414.022 39.7256C414.022 40.1035 413.909 40.4729 413.699 40.7871C413.489 41.1013 413.191 41.3461 412.841 41.4907C412.492 41.6353 412.108 41.6732 411.737 41.5995C411.366 41.5257 411.025 41.3438 410.758 41.0766C410.491 40.8094 410.309 40.469 410.235 40.0984C410.161 39.7278 410.199 39.3436 410.344 38.9945C410.488 38.6454 410.733 38.347 411.048 38.1371C411.362 37.9272 411.732 37.8151 412.11 37.8151C412.617 37.8151 413.103 38.0164 413.462 38.3747C413.82 38.733 414.022 39.2189 414.022 39.7256Z" fill="#E0E0E0"/>
<path d="M731.316 436.675H691.38C703.07 396.949 705.729 322.483 703.773 273.149H718.462C717.693 322.307 721.242 396.378 731.316 436.675Z" fill="#EBEBEB"/>
<path d="M786.217 484.987C782.817 481.206 778.559 478.295 773.801 476.499C769.043 474.703 763.923 474.074 758.871 474.665C759.827 465.881 760.706 456.537 757.234 448.489C753.762 440.441 744.237 434.687 736.986 438.958C739.666 426.782 734.964 413.112 725.538 405.711C720.86 402.093 715.188 399.991 709.282 399.685C703.375 399.378 697.516 400.883 692.49 403.998C682.437 410.399 676.526 423.521 678.108 435.917C672.972 435.591 667.841 436.622 663.23 438.906C658.618 441.19 654.69 444.646 651.839 448.928C648.911 453.447 647.094 458.594 646.537 463.949C645.979 469.303 646.697 474.714 648.631 479.738C633.678 478.937 619.417 498.492 619.714 514.512L794.808 514.303C795.59 509.086 795.226 503.762 793.742 498.7C792.259 493.637 789.691 488.958 786.217 484.987Z" fill="#EBEBEB"/>
<path d="M698.082 199.946L731.789 211.563C739.227 219.194 734.228 229.965 727.944 234.105C730.237 235.209 732.12 237.013 733.321 239.257C734.521 241.501 734.977 244.068 734.623 246.588C734.268 249.107 733.121 251.449 731.348 253.275C729.575 255.101 727.267 256.316 724.757 256.745C725.595 258.001 726.159 259.419 726.411 260.908C726.664 262.396 726.599 263.92 726.222 265.382C725.846 266.843 725.165 268.209 724.224 269.39C723.283 270.571 722.104 271.541 720.764 272.235C719.423 272.93 717.951 273.335 716.443 273.423C714.935 273.51 713.426 273.28 712.013 272.745C710.601 272.211 709.317 271.385 708.246 270.321C707.174 269.258 706.339 267.98 705.794 266.572C704.377 262.85 705.047 258.458 703.048 255.021C701.158 251.804 697.434 250.256 694.39 248.082C686.853 242.702 683.404 232.71 684.502 223.52C685.601 214.33 691.061 206.018 698.082 199.946Z" fill="#EBEBEB"/>
<path d="M719.484 207.577C720.778 210.902 721.398 214.452 721.308 218.019C721.291 218.525 721.115 219.014 720.805 219.415C720.495 219.816 720.067 220.109 719.581 220.254C719.095 220.398 718.576 220.386 718.097 220.22C717.618 220.053 717.204 219.74 716.913 219.325C717.056 223.686 716.913 228.05 716.485 232.392C716.429 233.003 716.186 233.582 715.789 234.049C715.392 234.517 714.86 234.851 714.266 235.004C713.672 235.158 713.045 235.125 712.47 234.909C711.896 234.693 711.402 234.304 711.057 233.797C704.805 224.686 702.073 213.618 703.366 202.647L719.484 207.577Z" fill="#E0E0E0"/>
<path d="M686.052 166.962L685.865 167.105C680.623 171.313 676.394 176.644 673.49 182.705C670.587 188.765 669.082 195.4 669.088 202.12V210.651L686.041 198.87L686.052 166.962Z" fill="#E0E0E0"/>
<path d="M734.481 166.896L734.667 167.039C739.837 171.187 744.009 176.442 746.875 182.417C749.74 188.392 751.227 194.934 751.224 201.56V209.982L734.481 198.376V166.896Z" fill="#E0E0E0"/>
<path d="M710.233 83.3821C714.067 83.3821 721.121 93.2641 727.669 109.833C731.549 119.577 733.845 129.878 734.47 140.346V211.563H686.073V146.934C686.039 140.629 686.606 134.335 687.765 128.137C688.956 121.9 690.642 115.769 692.808 109.8C698.95 93.2202 706.443 83.448 710.233 83.3821Z" fill="#F5F5F5"/>
<path d="M686.557 200.012C686.557 200.089 697.291 200.198 710.53 200.275C723.769 200.352 734.503 200.341 734.503 200.275C734.503 200.209 723.769 200.089 710.53 200.023C697.291 199.957 686.557 199.946 686.557 200.012Z" fill="#E0E0E0"/>
<path d="M686.766 202.175C686.766 202.241 697.499 202.361 710.738 202.427C723.977 202.493 734.711 202.504 734.711 202.427C734.711 202.35 723.988 202.241 710.738 202.164C697.488 202.087 686.766 202.109 686.766 202.175Z" fill="#E0E0E0"/>
<path d="M686.733 204.448C686.733 204.524 697.467 204.634 710.706 204.711C723.944 204.788 734.678 204.777 734.678 204.711C734.678 204.645 723.944 204.524 710.706 204.459C697.467 204.393 686.733 204.382 686.733 204.448Z" fill="#E0E0E0"/>
<path d="M686.667 206.731C686.667 206.797 697.401 206.918 710.629 206.984C723.857 207.05 734.612 207.061 734.612 206.984C734.612 206.907 723.879 206.808 710.64 206.731C697.401 206.655 686.667 206.655 686.667 206.731Z" fill="#E0E0E0"/>
<path d="M686.667 209.004C686.667 209.081 697.401 209.191 710.64 209.268C723.879 209.345 734.612 209.334 734.612 209.268C734.612 209.202 723.889 209.081 710.64 209.004C697.39 208.927 686.667 208.938 686.667 209.004Z" fill="#E0E0E0"/>
<path d="M710.167 167.006C710.161 167.116 710.161 167.225 710.167 167.335C710.127 167.656 710.105 167.978 710.101 168.301C710.101 169.136 710.101 170.355 710.101 171.848C710.101 174.846 710.101 178.985 710.101 183.553C710.101 188.12 710.222 192.271 710.288 195.257C710.288 196.74 710.354 197.947 710.376 198.815C710.376 199.21 710.376 199.529 710.376 199.77C710.362 199.883 710.362 199.997 710.376 200.11C710.385 199.997 710.385 199.883 710.376 199.77C710.376 199.529 710.376 199.21 710.376 198.804C710.376 197.936 710.376 196.74 710.376 195.257C710.376 192.238 710.31 188.109 710.277 183.553C710.244 178.996 710.189 174.867 710.156 171.848C710.156 170.377 710.156 169.169 710.156 168.301C710.156 167.884 710.156 167.555 710.156 167.335C710.174 167.226 710.178 167.116 710.167 167.006Z" fill="#E0E0E0"/>
<path d="M686.051 166.962C686.051 167.028 696.796 167.094 710.057 167.094C723.318 167.094 734.074 167.039 734.074 166.973C734.074 166.907 723.318 166.841 710.057 166.841C696.796 166.841 686.051 166.896 686.051 166.962Z" fill="#E0E0E0"/>
<path d="M706.3 190.492C706.3 190.492 706.223 190.382 706.003 190.272C705.691 190.138 705.342 190.115 705.014 190.207C704.757 190.26 704.519 190.382 704.325 190.559C704.131 190.737 703.99 190.965 703.916 191.217C703.816 191.522 703.813 191.85 703.907 192.157C704.001 192.464 704.188 192.734 704.441 192.931C704.695 193.128 705.003 193.242 705.324 193.258C705.645 193.273 705.963 193.189 706.234 193.017C706.459 192.888 706.645 192.7 706.772 192.474C706.9 192.248 706.964 191.992 706.959 191.733C706.958 191.392 706.846 191.06 706.64 190.788C706.498 190.602 706.377 190.547 706.366 190.558C706.355 190.569 706.443 190.657 706.564 190.843C706.717 191.114 706.79 191.422 706.772 191.733C706.769 191.956 706.708 192.175 706.594 192.368C706.48 192.56 706.318 192.72 706.124 192.831C705.891 192.973 705.62 193.042 705.347 193.026C705.074 193.01 704.812 192.912 704.597 192.743C704.382 192.575 704.223 192.344 704.143 192.083C704.062 191.822 704.064 191.543 704.146 191.283C704.205 191.07 704.318 190.876 704.474 190.72C704.63 190.565 704.824 190.452 705.036 190.393C705.333 190.299 705.652 190.299 705.948 190.393C706.179 190.437 706.289 190.503 706.3 190.492Z" fill="#E0E0E0"/>
<path d="M706.036 176.778C706.036 176.778 705.959 176.668 705.74 176.569C705.427 176.436 705.08 176.409 704.751 176.493C704.494 176.547 704.256 176.669 704.063 176.847C703.869 177.025 703.727 177.251 703.652 177.503C703.56 177.809 703.56 178.136 703.652 178.442C703.744 178.748 703.923 179.021 704.168 179.227C704.427 179.411 704.734 179.517 705.051 179.533C705.368 179.549 705.684 179.473 705.959 179.314C706.136 179.202 706.288 179.054 706.405 178.88C706.522 178.707 706.602 178.511 706.641 178.305C706.679 178.099 706.674 177.887 706.627 177.683C706.579 177.479 706.491 177.287 706.366 177.118C706.223 176.932 706.102 176.866 706.091 176.877C706.08 176.888 706.179 176.987 706.289 177.173C706.443 177.439 706.516 177.745 706.498 178.052C706.498 178.276 706.438 178.496 706.324 178.689C706.21 178.882 706.046 179.041 705.849 179.15C705.617 179.291 705.348 179.358 705.076 179.342C704.805 179.327 704.545 179.229 704.33 179.062C704.116 178.896 703.957 178.668 703.875 178.409C703.793 178.15 703.792 177.872 703.872 177.612C703.93 177.398 704.042 177.203 704.198 177.045C704.354 176.887 704.548 176.773 704.762 176.712C705.06 176.629 705.375 176.629 705.674 176.712C705.915 176.668 706.025 176.778 706.036 176.778Z" fill="#E0E0E0"/>
<path d="M708.937 240.66C709.498 241.026 709.894 241.598 710.038 242.252C710.182 242.907 710.064 243.592 709.708 244.16C709.352 244.728 708.788 245.134 708.136 245.29C707.484 245.447 706.796 245.341 706.221 244.996C705.646 244.651 705.229 244.095 705.061 243.446C704.892 242.798 704.985 242.109 705.319 241.528C705.653 240.947 706.202 240.52 706.848 240.339C707.493 240.158 708.184 240.238 708.772 240.561" fill="#E0E0E0"/>
<path d="M699.268 124.535C697.838 126.688 697.079 129.216 697.087 131.8C697.094 134.384 697.869 136.908 699.311 139.052C700.754 141.197 702.8 142.865 705.192 143.847C707.584 144.83 710.213 145.081 712.747 144.57C715.282 144.058 717.608 142.808 719.431 140.976C721.254 139.143 722.493 136.812 722.991 134.276C723.488 131.741 723.222 129.114 722.227 126.73C721.231 124.345 719.55 122.309 717.396 120.879C715.966 119.929 714.362 119.27 712.677 118.94C710.992 118.609 709.258 118.614 707.574 118.954C705.891 119.293 704.291 119.961 702.866 120.919C701.441 121.876 700.218 123.105 699.268 124.535Z" fill="white"/>
<path d="M699.268 124.535C699.955 123.71 700.688 122.925 701.466 122.185C703.653 120.238 706.43 119.078 709.354 118.891C711.497 118.764 713.638 119.175 715.58 120.088C717.522 121.001 719.205 122.387 720.473 124.118C721.979 126.154 722.843 128.593 722.956 131.123C723.082 133.839 722.339 136.525 720.833 138.79C719.327 141.055 717.138 142.781 714.584 143.717C713.38 144.17 712.112 144.429 710.826 144.486C709.593 144.566 708.356 144.455 707.157 144.156C704.923 143.608 702.878 142.47 701.235 140.862C699.787 139.481 698.688 137.776 698.027 135.888C697.051 133.135 697.032 130.134 697.972 127.368C698.346 126.366 698.786 125.39 699.29 124.447C699.112 124.663 698.954 124.894 698.818 125.139C698.625 125.417 698.456 125.711 698.312 126.017C698.096 126.427 697.913 126.853 697.763 127.291C696.896 129.667 696.731 132.242 697.288 134.709C697.845 137.175 699.101 139.43 700.905 141.203C702.607 142.868 704.724 144.047 707.036 144.618C709.585 145.243 712.263 145.094 714.727 144.189C717.417 143.233 719.725 141.433 721.309 139.059C722.893 136.685 723.667 133.863 723.516 131.013C723.382 128.38 722.477 125.845 720.912 123.723C719.496 121.821 717.6 120.328 715.419 119.397C713.085 118.424 710.52 118.143 708.03 118.587C705.541 119.031 703.231 120.181 701.378 121.9C701.033 122.211 700.713 122.549 700.422 122.91C700.192 123.16 699.982 123.428 699.796 123.712C699.583 123.96 699.405 124.238 699.268 124.535Z" fill="#E0E0E0"/>
<path d="M710.233 83.3821C714.067 83.3821 721.121 93.2641 727.669 109.833H692.808C698.95 93.2202 706.443 83.448 710.233 83.3821Z" fill="#E0E0E0"/>
<path d="M710.233 83.3821L709.552 83.459C708.911 83.6482 708.306 83.9412 707.761 84.3264C705.728 85.903 703.972 87.8066 702.564 89.9591C698.719 95.4491 694.258 104.233 690.644 115.762C688.715 122.116 687.326 128.621 686.491 135.208C686.058 138.9 685.831 142.613 685.81 146.33C685.81 150.162 685.81 154.115 685.81 158.178C685.81 174.428 685.81 192.446 685.81 211.585V211.914H734.81V211.64C734.81 192.49 734.81 174.472 734.744 158.222C734.744 154.159 734.744 150.206 734.744 146.374C734.744 144.453 734.744 142.564 734.744 140.709C734.744 138.853 734.514 137.019 734.305 135.219C733.499 128.627 732.068 122.127 730.031 115.806C728.308 110.654 726.253 105.618 723.878 100.731C722.125 97.0182 720.094 93.4432 717.803 90.036C716.416 87.8727 714.691 85.9451 712.694 84.3264C712.31 84.1068 712.002 83.8762 711.694 83.7445C711.438 83.6281 711.173 83.5291 710.903 83.448L710.233 83.3711C710.233 83.3711 710.453 83.3711 710.892 83.5029C711.155 83.589 711.412 83.6917 711.661 83.8103C711.996 83.9905 712.319 84.1922 712.628 84.4142C714.588 86.0548 716.279 87.9925 717.638 90.1568C719.875 93.5486 721.858 97.1011 723.571 100.785C725.91 105.677 727.935 110.713 729.635 115.861C731.636 122.16 733.037 128.634 733.821 135.197C734.03 136.975 734.206 138.798 734.239 140.687V146.341C734.239 150.17 734.239 154.119 734.239 158.189C734.239 174.45 734.239 192.457 734.239 211.607L734.525 211.321H686.073L686.348 211.607C686.348 192.468 686.348 174.45 686.293 158.2C686.293 154.137 686.293 150.184 686.293 146.352C686.304 142.65 686.521 138.952 686.941 135.274C687.75 128.711 689.11 122.228 691.006 115.894C694.555 104.31 698.961 95.526 702.729 90.036C704.112 87.8855 705.829 85.9692 707.816 84.3593C708.349 83.974 708.938 83.6739 709.563 83.47L710.233 83.3821Z" fill="#E0E0E0"/>
<path d="M703.015 138.436C703.743 137.937 704.407 137.35 704.992 136.69C706.146 135.592 707.684 133.901 709.387 132.067L713.606 127.335C714.231 126.718 714.794 126.041 715.287 125.315C714.563 125.815 713.903 126.401 713.32 127.061C712.156 128.159 710.618 129.839 708.926 131.683L704.707 136.416C704.079 137.033 703.513 137.71 703.015 138.436Z" fill="#E0E0E0"/>
<path d="M706.86 138.458C708.387 137.279 709.796 135.955 711.068 134.505C712.476 133.172 713.746 131.701 714.858 130.113C713.333 131.293 711.923 132.617 710.651 134.066C709.244 135.4 707.974 136.871 706.86 138.458Z" fill="#E0E0E0"/>
<path d="M781.723 514.742C781.723 514.907 614.21 515.039 407.627 515.039C201.045 515.039 33.4874 514.962 33.4874 514.742C33.4874 514.523 200.968 514.457 407.627 514.457C614.286 514.457 781.723 514.589 781.723 514.742Z" fill="#263238"/>
<path d="M739.051 260.632H698.851C692.862 260.632 688.007 265.484 688.007 271.47V311.645C688.007 317.631 692.862 322.483 698.851 322.483H739.051C745.04 322.483 749.895 317.631 749.895 311.645V271.47C749.895 265.484 745.04 260.632 739.051 260.632Z" fill="#263238"/>
<path d="M729.976 260.632H689.776C683.787 260.632 678.932 265.484 678.932 271.47V311.645C678.932 317.631 683.787 322.483 689.776 322.483H729.976C735.965 322.483 740.82 317.631 740.82 311.645V271.47C740.82 265.484 735.965 260.632 729.976 260.632Z" fill="#455A64"/>
<path d="M690.94 291.19L696.829 285.304L708.179 295.395L727.142 276.367L732.613 282.252L707.344 306.737L690.94 291.19Z" fill="white"/>
<path d="M710.354 447.753C711.853 448.471 713.192 449.482 714.293 450.727C715.393 451.972 716.232 453.425 716.759 455C717.786 458.165 718.075 461.523 717.605 464.816C716.88 471.185 713.265 477.619 709.365 482.714C703.993 478.025 702.773 469.867 702.389 465.684C701.817 459.096 704.784 446.776 710.354 447.753Z" fill="#00ACE2"/>
<path d="M715.595 493.222C715.232 491.401 715.355 489.516 715.953 487.758C716.551 486 717.602 484.43 719 483.208C720.423 482.014 722.068 481.115 723.841 480.563C725.614 480.01 727.479 479.816 729.328 479.991C730.194 479.972 731.054 480.144 731.846 480.495C732.638 480.846 733.342 481.367 733.909 482.022C734.327 482.708 734.553 483.494 734.565 484.297C734.577 485.1 734.373 485.892 733.975 486.59C733.158 487.963 731.995 489.099 730.602 489.884C725.944 492.793 720.912 494.77 715.65 493.178" fill="#00ACE2"/>
<path d="M708.717 512.766C708.742 512.326 708.805 511.889 708.904 511.459C709.079 510.537 709.299 509.351 709.552 507.924C710.155 503.982 711.391 500.163 713.21 496.614C715.1 493.073 717.903 490.1 721.33 488.006C722.366 487.388 723.473 486.894 724.626 486.535C725.032 486.403 725.362 486.348 725.57 486.293C725.683 486.276 725.798 486.276 725.911 486.293C724.382 486.823 722.91 487.503 721.516 488.325C718.211 490.471 715.501 493.417 713.639 496.889C711.848 500.398 710.589 504.154 709.903 508.034C709.574 509.516 709.31 510.713 709.112 511.536C709.018 511.957 708.885 512.369 708.717 512.766Z" fill="#263238"/>
<path d="M708.915 457.328C708.967 457.514 708.989 457.706 708.981 457.899C708.981 458.316 709.047 458.865 709.079 459.535C709.156 460.962 709.244 463.027 709.321 465.574C709.486 470.68 709.618 477.74 709.585 485.525C709.552 493.309 709.365 500.381 709.156 505.475C709.046 508.034 708.948 510.098 708.86 511.514C708.86 512.195 708.772 512.733 708.75 513.161C708.749 513.354 708.724 513.546 708.673 513.732C708.656 513.542 708.656 513.351 708.673 513.161C708.673 512.733 708.673 512.184 708.673 511.514C708.673 510.032 708.761 507.979 708.827 505.464C708.948 500.37 709.09 493.32 709.123 485.525C709.156 477.729 709.123 470.691 708.992 465.585C708.992 463.082 708.926 461.028 708.904 459.546C708.904 458.865 708.904 458.327 708.904 457.899C708.891 457.709 708.894 457.518 708.915 457.328Z" fill="#263238"/>
<path d="M706.311 497.098C705.664 493.238 704.105 489.588 701.765 486.451C699.424 483.313 696.369 480.779 692.852 479.057C691.061 478.201 688.721 477.63 687.249 478.97C685.777 480.309 686.15 482.703 686.82 484.558C688.398 488.404 691.079 491.697 694.526 494.023C697.973 496.348 702.031 497.601 706.19 497.625" fill="#00ACE2"/>
<path d="M693.72 485.096C694.101 485.226 694.469 485.391 694.819 485.591C695.261 485.795 695.69 486.026 696.104 486.282C696.667 486.595 697.213 486.935 697.741 487.303C698.393 487.74 699.021 488.213 699.62 488.72C700.318 489.28 700.982 489.882 701.609 490.521C703.052 491.997 704.324 493.633 705.399 495.396C706.447 497.175 707.287 499.069 707.904 501.039C708.161 501.898 708.37 502.771 708.53 503.653C708.688 504.421 708.795 505.198 708.849 505.98C708.948 506.694 708.915 507.342 708.948 507.913C708.978 508.395 708.978 508.88 708.948 509.362C708.938 509.779 708.89 510.195 708.805 510.603C708.695 510.603 708.882 508.824 708.574 506.013C708.475 505.311 708.387 504.542 708.201 503.729C708.024 502.861 707.801 502.004 707.53 501.16C706.906 499.245 706.073 497.404 705.047 495.67C703.991 493.938 702.75 492.325 701.345 490.861C700.734 490.219 700.088 489.61 699.411 489.038C698.834 488.529 698.229 488.053 697.598 487.611C695.291 485.92 693.676 485.184 693.72 485.096Z" fill="#263238"/>
<path d="M220.502 239.551H105.648V514.819H220.502V239.551Z" fill="#E0E0E0"/>
<path d="M163.075 239.551H72.2703V514.819H163.075V239.551Z" fill="#F5F5F5"/>
<path d="M163.207 514.611C163.053 514.611 162.921 452.969 162.921 376.932C162.921 300.896 163.053 239.243 163.207 239.243C163.361 239.243 163.493 300.885 163.493 376.932C163.493 452.98 163.372 514.611 163.207 514.611Z" fill="#263238"/>
<path d="M207.154 271.173H179.643V274.006H207.154V271.173Z" fill="#263238"/>
<path d="M207.154 279.276H179.643V282.109H207.154V279.276Z" fill="#263238"/>
<path d="M207.154 287.391H179.643V290.223H207.154V287.391Z" fill="#263238"/>
<path d="M154.297 251.255H81.6529V506.079H154.297V251.255Z" fill="#E0E0E0"/>
<path d="M147.057 260.643H86.8716V269.757H147.057V260.643Z" fill="#EBEBEB"/>
<path d="M95.9905 260.643H86.8716V269.757H95.9905V260.643Z" fill="#00ACE2"/>
<path d="M148.924 260.643H129.104V269.757H148.924V260.643Z" fill="#F5F5F5"/>
<path d="M147.057 276.861H86.8716V285.974H147.057V276.861Z" fill="#EBEBEB"/>
<path d="M95.9905 276.861H86.8716V285.974H95.9905V276.861Z" fill="white"/>
<path d="M148.924 276.861H129.104V285.974H148.924V276.861Z" fill="#F5F5F5"/>
<path d="M147.057 293.089H86.8716V302.203H147.057V293.089Z" fill="#EBEBEB"/>
<path d="M95.9905 293.089H86.8716V302.203H95.9905V293.089Z" fill="#00ACE2"/>
<path d="M148.924 293.089H129.104V302.203H148.924V293.089Z" fill="#F5F5F5"/>
<path d="M147.057 309.318H86.8716V318.431H147.057V309.318Z" fill="#EBEBEB"/>
<path d="M95.9905 309.318H86.8716V318.431H95.9905V309.318Z" fill="white"/>
<path d="M148.924 309.318H129.104V318.431H148.924V309.318Z" fill="#F5F5F5"/>
<path d="M147.057 325.535H86.8716V334.648H147.057V325.535Z" fill="#EBEBEB"/>
<path d="M95.9905 325.535H86.8716V334.648H95.9905V325.535Z" fill="#00ACE2"/>
<path d="M148.924 325.535H129.104V334.648H148.924V325.535Z" fill="#F5F5F5"/>
<path d="M147.057 341.763H86.8716V350.877H147.057V341.763Z" fill="#EBEBEB"/>
<path d="M95.9905 341.763H86.8716V350.877H95.9905V341.763Z" fill="#00ACE2"/>
<path d="M148.924 341.763H129.104V350.877H148.924V341.763Z" fill="#F5F5F5"/>
<path d="M147.057 357.992H86.8716V367.105H147.057V357.992Z" fill="#EBEBEB"/>
<path d="M95.9905 357.992H86.8716V367.105H95.9905V357.992Z" fill="white"/>
<path d="M148.924 357.992H129.104V367.105H148.924V357.992Z" fill="#F5F5F5"/>
<path d="M147.057 374.209H86.8716V383.323H147.057V374.209Z" fill="#EBEBEB"/>
<path d="M95.9905 374.209H86.8716V383.323H95.9905V374.209Z" fill="white"/>
<path d="M148.924 374.209H129.104V383.323H148.924V374.209Z" fill="#F5F5F5"/>
<path d="M147.057 390.438H86.8716V399.551H147.057V390.438Z" fill="#EBEBEB"/>
<path d="M95.9905 390.438H86.8716V399.551H95.9905V390.438Z" fill="white"/>
<path d="M148.924 390.438H129.104V399.551H148.924V390.438Z" fill="#F5F5F5"/>
<path d="M147.057 406.666H86.8716V415.78H147.057V406.666Z" fill="#EBEBEB"/>
<path d="M95.9905 406.666H86.8716V415.78H95.9905V406.666Z" fill="#00ACE2"/>
<path d="M148.924 406.666H129.104V415.78H148.924V406.666Z" fill="#F5F5F5"/>
<path d="M147.057 422.895H86.8716V432.008H147.057V422.895Z" fill="#EBEBEB"/>
<path d="M95.9905 422.895H86.8716V432.008H95.9905V422.895Z" fill="white"/>
<path d="M148.924 422.895H129.104V432.008H148.924V422.895Z" fill="#F5F5F5"/>
<path d="M147.057 439.112H86.8716V448.226H147.057V439.112Z" fill="#EBEBEB"/>
<path d="M95.9905 439.112H86.8716V448.226H95.9905V439.112Z" fill="#00ACE2"/>
<path d="M148.924 439.112H129.104V448.226H148.924V439.112Z" fill="#F5F5F5"/>
<path d="M147.057 455.341H86.8716V464.454H147.057V455.341Z" fill="#EBEBEB"/>
<path d="M95.9905 455.341H86.8716V464.454H95.9905V455.341Z" fill="white"/>
<path d="M148.924 455.341H129.104V464.454H148.924V455.341Z" fill="#F5F5F5"/>
<path d="M147.057 471.569H86.8716V480.682H147.057V471.569Z" fill="#EBEBEB"/>
<path d="M95.9905 471.569H86.8716V480.682H95.9905V471.569Z" fill="#00ACE2"/>
<path d="M148.924 471.569H129.104V480.682H148.924V471.569Z" fill="#F5F5F5"/>
<path d="M147.057 487.786H86.8716V496.9H147.057V487.786Z" fill="#EBEBEB"/>
<path d="M95.9905 487.786H86.8716V496.9H95.9905V487.786Z" fill="white"/>
<path d="M148.924 487.786H129.104V496.9H148.924V487.786Z" fill="#F5F5F5"/>
<path d="M220.502 514.819C220.502 512.371 220.393 400.517 220.239 239.551L220.502 239.814H72.2923L72.5779 239.529C72.5779 345.2 72.523 441.824 72.512 514.797L72.2923 514.578L220.524 514.797L72.2923 515.006H72.0725V514.786C72.0725 441.813 72.0725 345.189 72.0066 239.518V239.232H72.3142H220.524H220.788V239.496C220.788 320.045 220.7 388.89 220.667 437.608C220.557 486.205 220.502 513.601 220.502 514.819Z" fill="#263238"/>
<path d="M609.672 161.966H214.328C211.056 161.966 207.917 163.265 205.604 165.578C203.29 167.89 201.99 171.026 201.99 174.297V453.375C201.99 456.645 203.29 459.782 205.604 462.094C207.917 464.407 211.056 465.706 214.328 465.706H366.065L358.704 514.457H468.713L462.539 465.706H609.672C612.944 465.706 616.083 464.407 618.396 462.094C620.71 459.782 622.01 456.645 622.01 453.375V174.297C622.01 172.677 621.691 171.074 621.071 169.578C620.451 168.082 619.542 166.723 618.396 165.578C617.251 164.433 615.891 163.524 614.394 162.905C612.897 162.285 611.292 161.966 609.672 161.966Z" fill="#455A64"/>
<path d="M417.274 436.356C422.657 444.042 414.241 452.453 406.551 447.073C406.294 446.893 406.071 446.67 405.891 446.414C400.53 438.728 408.935 430.328 416.614 435.697C416.871 435.877 417.094 436.1 417.274 436.356Z" fill="#263238"/>
<path d="M223.7 172.617H600.355C603.182 172.617 605.893 173.739 607.891 175.736C609.89 177.733 611.012 180.442 611.012 183.267V414.649H213.042V183.267C213.042 180.442 214.165 177.733 216.164 175.736C218.162 173.739 220.873 172.617 223.7 172.617Z" fill="#263238"/>
<path d="M503.365 465.706C503.365 465.848 470.218 465.958 429.348 465.958C388.478 465.958 355.331 465.848 355.331 465.706C355.331 465.563 388.467 465.464 429.348 465.464C470.229 465.464 503.365 465.552 503.365 465.706Z" fill="#263238"/>
<path d="M282.017 191.733H253.012V197.849H282.017V191.733Z" fill="#455A64"/>
<path d="M267.514 219.139H253.012V225.255H267.514V219.139Z" fill="#00ACE2"/>
<path d="M284.357 232.919H263.933V239.035H284.357V232.919Z" fill="#455A64"/>
<path d="M299.497 232.919H287.598V239.035H299.497V232.919Z" fill="#455A64"/>
<path d="M406.199 232.919H381.721V239.035H406.199V232.919Z" fill="#455A64"/>
<path d="M477.722 246.347H436.379V252.463H477.722V246.347Z" fill="#455A64"/>
<path d="M541.5 232.919H521.647V239.035H541.5V232.919Z" fill="#455A64"/>
<path d="M587.512 232.919H547.586V239.035H587.512V232.919Z" fill="#455A64"/>
<path d="M284.357 246.347H263.933V252.463H284.357V246.347Z" fill="#455A64"/>
<path d="M271.799 259.743H251.375V265.859H271.799V259.743Z" fill="#00ACE2"/>
<path d="M271.81 273.149H262.263V279.265H271.81V273.149Z" fill="#455A64"/>
<path d="M306.825 301.368H297.288V307.484H306.825V301.368Z" fill="#455A64"/>
<path d="M447.19 352.359H428.546V358.475H447.19V352.359Z" fill="#455A64"/>
<path d="M551.344 352.359H505.672V358.475H551.344V352.359Z" fill="#455A64"/>
<path d="M376.996 338.975H358.352V345.09H376.996V338.975Z" fill="#E0E0E0"/>
<path d="M309.45 327.489H290.806V333.605H309.45V327.489Z" fill="#455A64"/>
<path d="M424.679 352.359H395.278V358.475H424.679V352.359Z" fill="#455A64"/>
<path d="M277.743 286.787H262.263V292.902H277.743V286.787Z" fill="#455A64"/>
<path d="M290.982 301.599H262.263V307.714H290.982V301.599Z" fill="#455A64"/>
<path d="M304.287 312.93H262.263V319.046H304.287V312.93Z" fill="#455A64"/>
<path d="M380.424 312.93H338.4V319.046H380.424V312.93Z" fill="#455A64"/>
<path d="M349.442 338.975H290.433V345.09H349.442V338.975Z" fill="#455A64"/>
<path d="M390.235 352.359H290.433V358.475H390.235V352.359Z" fill="#455A64"/>
<path d="M360.044 365.755H260.241V371.871H360.044V365.755Z" fill="#455A64"/>
<path d="M333.94 312.93H308.725V319.046H333.94V312.93Z" fill="#455A64"/>
<path d="M301.584 273.149H275.568V279.265H301.584V273.149Z" fill="#455A64"/>
<path d="M307.319 286.798H281.303V292.913H307.319V286.798Z" fill="#455A64"/>
<path d="M408.111 286.798H339.224V292.913H408.111V286.798Z" fill="#455A64"/>
<path d="M489.533 286.798H409.978V292.913H489.533V286.798Z" fill="#455A64"/>
<path d="M333.127 286.798H311.593V292.913H333.127V286.798Z" fill="#455A64"/>
<path d="M339.246 273.149H305.144V279.265H339.246V273.149Z" fill="#455A64"/>
<path d="M362 273.149H343.015V279.265H362V273.149Z" fill="#E0E0E0"/>
<path d="M308.89 246.347H287.598V252.463H308.89V246.347Z" fill="#455A64"/>
<path d="M428.491 246.347H323.36V252.463H428.491V246.347Z" fill="#455A64"/>
<path d="M546.499 286.798H496.795V292.913H546.499V286.798Z" fill="#455A64"/>
<path d="M501.75 352.359H452.035V358.475H501.75V352.359Z" fill="#455A64"/>
<path d="M513.912 232.919H410.352V239.035H513.912V232.919Z" fill="#455A64"/>
<path d="M375.283 232.919H303.221V239.035H375.283V232.919Z" fill="#455A64"/>
<path d="M301.529 204.711H253.012V210.827H301.529V204.711Z" fill="#455A64"/>
<path d="M372.811 204.711H306.374V210.827H372.811V204.711Z" fill="#455A64"/>
<path d="M307.912 191.733H286.554V197.849H307.912V191.733Z" fill="#E0E0E0"/>
<path d="M242.421 191.733H236.488V197.849H242.421V191.733Z" fill="#455A64"/>
<path d="M242.421 205.128H236.488V211.244H242.421V205.128Z" fill="#455A64"/>
<path d="M242.421 218.513H236.488V224.629H242.421V218.513Z" fill="#455A64"/>
<path d="M242.421 231.898H236.488V238.013H242.421V231.898Z" fill="#455A64"/>
<path d="M242.421 245.282H236.488V251.398H242.421V245.282Z" fill="#455A64"/>
<path d="M242.421 258.667H236.488V264.783H242.421V258.667Z" fill="#455A64"/>
<path d="M242.421 272.051H236.488V278.167H242.421V272.051Z" fill="#455A64"/>
<path d="M242.421 285.436H236.488V291.552H242.421V285.436Z" fill="#455A64"/>
<path d="M242.421 298.821H236.488V304.937H242.421V298.821Z" fill="#455A64"/>
<path d="M304.484 394.665H294.948V400.781H304.484V394.665Z" fill="#E0E0E0"/>
<path d="M289.147 394.665H260.428V400.781H289.147V394.665Z" fill="#00ACE2"/>
<path d="M242.421 393.984H236.488V400.1H242.421V393.984Z" fill="#455A64"/>
<path d="M242.421 312.205H236.488V318.321H242.421V312.205Z" fill="#455A64"/>
<path d="M242.421 325.59H236.488V331.706H242.421V325.59Z" fill="#455A64"/>
<path d="M242.421 338.975H236.488V345.09H242.421V338.975Z" fill="#455A64"/>
<path d="M242.421 352.359H236.488V358.475H242.421V352.359Z" fill="#455A64"/>
<path d="M242.421 365.755H236.488V371.871H242.421V365.755Z" fill="#455A64"/>
<path d="M289.334 379.831H260.241V385.947H289.334V379.831Z" fill="#455A64"/>
<path d="M360.769 379.831H294.948V385.947H360.769V379.831Z" fill="#455A64"/>
<path d="M242.421 379.831H236.488V385.947H242.421V379.831Z" fill="#455A64"/>
<path d="M402.277 204.667H380.919V210.783H402.277V204.667Z" fill="#E0E0E0"/>
<g opacity="0.3">
<path opacity="0.3" d="M427.689 311.777H413.099V430.229H586.941L582.414 314.654L427.689 311.777Z" fill="black"/>
</g>
<path d="M598.246 294.264H424.294V419.041H598.246V294.264Z" fill="#E0E0E0"/>
<path d="M598.773 419.59H423.745V293.715H598.773V419.59ZM424.821 418.492H597.675V294.813H424.843L424.821 418.492Z" fill="#263238"/>
<path d="M485.446 307.594H457.32V313.523H485.446V307.594Z" fill="#455A64"/>
<path d="M471.383 334.165H457.32V340.094H471.383V334.165Z" fill="#00ACE2"/>
<path d="M487.709 347.528H467.9V353.457H487.709V347.528Z" fill="#455A64"/>
<path d="M502.398 347.528H490.862V353.457H502.398V347.528Z" fill="#455A64"/>
<path d="M487.709 360.561H467.9V366.49H487.709V360.561Z" fill="#455A64"/>
<path d="M475.547 373.551H455.738V379.48H475.547V373.551Z" fill="#00ACE2"/>
<path d="M475.536 386.54H466.285V392.469H475.536V386.54Z" fill="#455A64"/>
<path d="M481.304 399.771H466.285V405.7H481.304V399.771Z" fill="#455A64"/>
<path d="M504.42 386.54H479.194V392.469H504.42V386.54Z" fill="#455A64"/>
<path d="M509.979 399.782H484.754V405.711H509.979V399.782Z" fill="#455A64"/>
<path d="M570.768 399.782H540.929V405.711H570.768V399.782Z" fill="#455A64"/>
<path d="M535.007 399.782H514.132V405.711H535.007V399.782Z" fill="#455A64"/>
<path d="M540.951 386.54H507.881V392.469H540.951V386.54Z" fill="#455A64"/>
<path d="M563.012 386.54H544.598V392.469H563.012V386.54Z" fill="white"/>
<path d="M511.506 360.561H490.862V366.49H511.506V360.561Z" fill="#455A64"/>
<path d="M575.888 347.528H506.002V353.457H575.888V347.528Z" fill="#455A64"/>
<path d="M504.376 320.177H457.32V326.106H504.376V320.177Z" fill="#455A64"/>
<path d="M573.493 320.177H509.067V326.106H573.493V320.177Z" fill="#455A64"/>
<path d="M510.55 307.594H489.841V313.523H510.55V307.594Z" fill="white"/>
<path d="M447.036 307.594H441.29V313.523H447.036V307.594Z" fill="#455A64"/>
<path d="M447.036 320.572H441.29V326.501H447.036V320.572Z" fill="#455A64"/>
<path d="M447.036 333.561H441.29V339.491H447.036V333.561Z" fill="#455A64"/>
<path d="M447.036 346.54H441.29V352.469H447.036V346.54Z" fill="#455A64"/>
<path d="M447.036 359.518H441.29V365.447H447.036V359.518Z" fill="#455A64"/>
<path d="M447.036 372.496H441.29V378.426H447.036V372.496Z" fill="#455A64"/>
<path d="M447.036 385.486H441.29V391.415H447.036V385.486Z" fill="#455A64"/>
<path d="M447.036 398.464H441.29V404.393H447.036V398.464Z" fill="#455A64"/>
<g opacity="0.3">
<path opacity="0.3" d="M330.545 465.036C332.742 454.056 325.601 421.215 325.601 421.215L272.184 428L269.986 464.794L330.545 465.036Z" fill="black"/>
</g>
<path d="M262.581 421.215C262.581 421.215 264.932 464.882 255.132 479.903L321.657 481.539C321.657 481.539 326.82 456.032 325.645 421.215H262.581Z" fill="#00ACE2"/>
<path d="M325.425 429.669C325.425 429.823 311.571 429.955 294.498 429.955C277.424 429.955 263.57 429.823 263.57 429.669C263.57 429.516 277.413 429.384 294.498 429.384C311.582 429.384 325.425 429.516 325.425 429.669Z" fill="#263238"/>
<path d="M318.031 444.613C318.031 444.767 306.956 444.899 293.311 444.899C279.666 444.899 268.591 444.767 268.591 444.613C268.591 444.459 279.655 444.328 293.311 444.328C306.967 444.328 318.031 444.459 318.031 444.613Z" fill="#263238"/>
<path d="M318.613 452.771C318.613 452.925 307.55 453.057 293.893 453.057C280.237 453.057 269.173 452.925 269.173 452.771C269.173 452.618 280.237 452.486 293.882 452.486C307.528 452.486 318.613 452.618 318.613 452.771Z" fill="#263238"/>
<path d="M317.02 460.929C317.02 461.083 305.946 461.215 292.3 461.215C278.655 461.215 267.58 461.083 267.58 460.929C267.58 460.776 278.644 460.644 292.3 460.644C305.957 460.644 317.02 460.776 317.02 460.929Z" fill="#263238"/>
<g opacity="0.3">
<path opacity="0.3" d="M251.595 422.027C251.595 422.027 254.44 454.352 254.44 465.848H246.244L251.595 422.027Z" fill="black"/>
</g>
<path d="M231.94 422.027C231.94 422.027 234.291 465.706 224.491 480.715H246.398C246.398 480.715 252.693 456.845 251.595 422.027H231.94Z" fill="#E0E0E0"/>
<path d="M538.182 232.117L575.02 189.8L537.929 162.877L567.033 145.76C567.033 145.76 612.682 173.484 612.078 190.13C611.54 205.282 553.992 243.613 553.992 243.613L538.182 232.117Z" fill="#FFBF9D"/>
<path d="M509.287 328.302C504.911 335.478 498.901 341.52 491.746 345.934C484.591 350.349 476.493 353.012 468.113 353.707C459.733 354.401 451.308 353.108 443.523 349.931C435.738 346.755 428.814 341.785 423.315 335.428C417.815 329.07 413.897 321.504 411.878 313.346C409.859 305.188 409.797 296.669 411.697 288.483C413.597 280.296 417.406 272.674 422.812 266.237C428.218 259.801 435.069 254.731 442.807 251.442C453.21 247.02 464.75 246.012 475.763 248.565C486.776 251.118 496.694 257.1 504.088 265.647C511.481 274.195 515.968 284.868 516.903 296.128C517.837 307.388 515.17 318.654 509.287 328.302ZM421.185 274.632C415.006 284.759 412.651 296.759 414.543 308.469C416.435 320.179 422.45 330.828 431.504 338.498C440.558 346.167 452.056 350.352 463.924 350.298C475.793 350.244 487.252 345.954 496.236 338.203C505.219 330.452 511.137 319.748 512.923 308.021C514.708 296.295 512.243 284.317 505.972 274.246C499.701 264.175 490.037 256.674 478.722 253.095C467.406 249.516 455.184 250.094 444.257 254.725C434.68 258.772 426.612 265.714 421.185 274.577V274.632Z" fill="#00ACE2"/>
<g opacity="0.3">
<path opacity="0.3" d="M509.287 328.302C504.911 335.478 498.901 341.52 491.746 345.934C484.591 350.349 476.493 353.012 468.113 353.707C459.733 354.401 451.308 353.108 443.523 349.931C435.738 346.755 428.814 341.785 423.315 335.428C417.815 329.07 413.897 321.504 411.878 313.346C409.859 305.188 409.797 296.669 411.697 288.483C413.597 280.296 417.406 272.674 422.812 266.237C428.218 259.801 435.069 254.731 442.807 251.442C453.21 247.02 464.75 246.012 475.763 248.565C486.776 251.118 496.694 257.1 504.088 265.647C511.481 274.195 515.968 284.868 516.903 296.128C517.837 307.388 515.17 318.654 509.287 328.302ZM421.185 274.632C415.006 284.759 412.651 296.759 414.543 308.469C416.435 320.179 422.45 330.828 431.504 338.498C440.558 346.167 452.056 350.352 463.924 350.298C475.793 350.244 487.252 345.954 496.236 338.203C505.219 330.452 511.137 319.748 512.923 308.021C514.708 296.295 512.243 284.317 505.972 274.246C499.701 264.175 490.037 256.674 478.722 253.095C467.406 249.516 455.184 250.094 444.257 254.725C434.68 258.772 426.612 265.714 421.185 274.577V274.632Z" fill="black"/>
</g>
<path d="M507.123 325.908C502.747 333.084 496.736 339.126 489.581 343.541C482.426 347.955 474.329 350.619 465.949 351.313C457.569 352.008 449.143 350.714 441.358 347.538C433.573 344.361 426.649 339.392 421.15 333.034C415.651 326.676 411.733 319.11 409.714 310.952C407.695 302.795 407.633 294.275 409.533 286.089C411.433 277.903 415.241 270.281 420.647 263.844C426.053 257.407 432.904 252.338 440.642 249.048C451.046 244.626 462.586 243.619 473.599 246.172C484.612 248.725 494.53 254.706 501.923 263.254C509.317 271.801 513.804 282.474 514.738 293.734C515.673 304.994 513.006 316.26 507.123 325.908ZM419.021 272.238C412.848 282.365 410.498 294.363 412.394 306.069C414.289 317.775 420.307 328.419 429.361 336.083C438.416 343.747 449.911 347.927 461.777 347.869C473.642 347.812 485.097 343.52 494.076 335.769C503.055 328.017 508.969 317.315 510.751 305.591C512.532 293.867 510.066 281.893 503.795 271.826C497.524 261.759 487.861 254.262 476.548 250.686C465.235 247.109 453.016 247.689 442.093 252.32C432.506 256.383 424.436 263.35 419.021 272.238Z" fill="#00ACE2"/>
<path d="M584.776 227.813L586.864 231.107C588.742 234.006 586.446 238.683 582.337 240.583L512.649 283.229L506.145 273.72L574.075 226.188C578.47 222.828 582.359 224.08 584.776 227.813Z" fill="#00ACE2"/>
<path d="M463.725 253.803C463.433 253.831 463.139 253.831 462.846 253.803C462.275 253.803 461.429 253.726 460.341 253.803C457.271 253.932 454.228 254.43 451.277 255.285C449.237 255.88 447.24 256.614 445.301 257.481C443.085 258.481 440.941 259.633 438.884 260.929C436.609 262.349 434.453 263.949 432.435 265.716C430.254 267.601 428.25 269.681 426.447 271.931C424.662 274.187 423.098 276.61 421.778 279.166C420.589 281.572 419.604 284.073 418.834 286.644C417.554 291.014 416.943 295.553 417.021 300.105C417.062 303.174 417.43 306.229 418.12 309.219C418.317 310.317 418.614 311.085 418.735 311.656C418.83 311.93 418.897 312.214 418.933 312.502C418.812 312.238 418.709 311.967 418.625 311.689C418.471 311.129 418.142 310.339 417.9 309.274C417.117 306.281 416.678 303.209 416.592 300.116C416.456 295.517 417.034 290.924 418.306 286.501C419.068 283.891 420.057 281.352 421.262 278.914C422.589 276.315 424.172 273.854 425.986 271.568C427.811 269.294 429.841 267.192 432.051 265.288C434.108 263.494 436.313 261.878 438.643 260.457C440.723 259.156 442.897 258.011 445.147 257.031C447.115 256.193 449.137 255.489 451.2 254.923C454.18 254.108 457.252 253.676 460.341 253.638C461.185 253.624 462.028 253.654 462.868 253.726C463.156 253.729 463.442 253.754 463.725 253.803Z" fill="white"/>
<path d="M505.387 310.855C505.255 310.855 506.244 308.417 506.936 304.322C507.013 303.806 507.101 303.224 507.178 302.719C507.254 302.214 507.276 301.566 507.342 300.962C507.474 299.754 507.452 298.447 507.474 297.075C507.373 291.119 505.991 285.254 503.42 279.88C502.794 278.661 502.234 277.487 501.574 276.465C501.256 275.949 500.97 275.433 500.651 274.961C500.333 274.489 500.014 274.061 499.718 273.633C497.268 270.284 495.323 268.571 495.411 268.472C495.889 268.843 496.34 269.246 496.762 269.68C497.29 270.155 497.782 270.669 498.234 271.217C498.878 271.912 499.48 272.646 500.036 273.413C500.355 273.83 500.673 274.269 501.014 274.731C501.355 275.192 501.64 275.708 501.981 276.235C502.68 277.343 503.322 278.486 503.903 279.661C505.199 282.38 506.215 285.224 506.936 288.148C507.612 291.081 507.98 294.077 508.034 297.086C508.034 298.469 508.034 299.787 507.848 301.017C507.782 301.621 507.749 302.225 507.65 302.784C507.551 303.344 507.452 303.882 507.364 304.399C507.2 305.328 506.987 306.247 506.727 307.155C506.563 307.846 506.35 308.525 506.09 309.186C505.903 309.761 505.668 310.319 505.387 310.855Z" fill="white"/>
<path d="M472.427 273.062C472.537 273.182 465.351 279.902 456.375 288.082C447.399 296.262 440.049 302.806 439.895 302.686C439.741 302.565 446.971 295.845 455.947 287.676C464.923 279.507 472.273 272.941 472.427 273.062Z" fill="white"/>
<path d="M486.094 281.725C485.936 281.901 485.764 282.062 485.578 282.208L484.04 283.526L478.348 288.324C473.536 292.364 466.9 297.964 459.671 304.234C452.442 310.503 445.905 316.246 441.214 320.418L435.632 325.359L434.105 326.688C433.936 326.853 433.748 326.997 433.545 327.116C433.691 326.931 433.853 326.758 434.028 326.6L435.489 325.195C436.764 323.976 438.621 322.252 440.983 320.122C445.619 315.873 452.079 310.075 459.342 303.795C466.604 297.514 473.284 291.98 478.173 288.016C480.612 286.029 482.567 284.437 483.985 283.361L485.589 282.12C485.74 281.968 485.91 281.836 486.094 281.725Z" fill="white"/>
<g opacity="0.3">
<path opacity="0.3" d="M419.328 323.108L492.62 259.908C492.62 259.908 499.86 265.398 502.937 270.404L427.931 334.89C424.334 331.55 421.414 327.55 419.328 323.108Z" fill="white"/>
</g>
<g opacity="0.3">
<path opacity="0.3" d="M435.962 340.819L507.375 278.65C507.375 278.65 507.727 278.069 508.705 282.537L439.467 342.763C438.166 342.389 436.967 341.725 435.962 340.819Z" fill="white"/>
</g>
<path d="M538.182 232.117C538.182 232.117 516.692 255.779 516.209 256.668C515.725 257.558 509.935 271.217 511.363 273.984C512.792 276.751 523.559 286.468 523.559 286.468C523.559 286.468 527.404 284.81 523.767 278.31L520.131 271.821L522.086 265.233C522.086 265.233 524.987 273.545 526.668 275.367C528.349 277.19 535.007 280.308 536.677 278.661C537.673 277.709 538.345 276.469 538.599 275.115C538.599 275.115 543.159 278.738 546.378 272.974C546.378 272.974 550.432 272.348 552.168 269.515C553.904 266.682 553.728 261.324 553.728 261.324C553.56 260.974 553.316 260.667 553.012 260.425C552.709 260.184 552.355 260.014 551.977 259.928C551.598 259.842 551.206 259.844 550.828 259.931C550.45 260.019 550.097 260.191 549.795 260.435C548.072 261.742 546.742 263.497 545.949 265.507L544.071 263.004C544.56 259.624 545.526 256.33 546.938 253.221C548.246 250.717 556.683 245.26 557.683 240.912C558.529 237.234 551.168 234.796 547.389 235.005C546.822 235.037 546.263 235.151 545.73 235.345L538.182 232.117Z" fill="#FFBF9D"/>
<path d="M536.314 262.334C536.281 262.549 536.281 262.767 536.314 262.982C536.363 263.56 536.462 264.134 536.611 264.695C537.095 266.575 538.057 268.299 539.405 269.698C540.753 271.096 542.439 272.123 544.301 272.677C544.861 272.846 545.435 272.964 546.015 273.029C546.226 273.062 546.442 273.062 546.653 273.029C546.653 272.963 545.741 272.897 544.367 272.436C542.571 271.834 540.944 270.814 539.621 269.46C538.321 268.087 537.361 266.429 536.819 264.618C536.402 263.246 536.369 262.334 536.314 262.334Z" fill="#FF9A6C"/>
<path d="M529.085 261.62C529.061 261.847 529.061 262.075 529.085 262.301C529.097 262.57 529.126 262.838 529.173 263.103C529.209 263.472 529.268 263.839 529.349 264.201C529.552 265.103 529.827 265.988 530.173 266.847C531.04 268.952 532.334 270.855 533.974 272.436C534.649 273.087 535.385 273.671 536.171 274.182C536.49 274.412 536.809 274.577 537.072 274.742C537.336 274.906 537.589 275.016 537.786 275.104C537.988 275.217 538.202 275.305 538.424 275.367C538.424 275.313 537.567 274.906 536.303 273.995C535.559 273.465 534.861 272.874 534.216 272.227C533.428 271.438 532.715 270.578 532.084 269.658C531.396 268.69 530.786 267.67 530.26 266.605C529.968 265.807 529.747 264.984 529.601 264.146C529.206 262.587 529.151 261.61 529.085 261.62Z" fill="#FF9A6C"/>
<path d="M520.856 259.908C520.856 259.908 520.669 260.226 520.592 260.797C520.513 261.539 520.604 262.29 520.856 262.993C521.078 263.721 521.496 264.374 522.064 264.882C522.482 265.277 522.801 265.442 522.823 265.409C522.106 264.684 521.539 263.826 521.153 262.883C520.866 261.919 520.765 260.909 520.856 259.908Z" fill="#FF9A6C"/>
<path d="M594.972 187.286C594.972 187.374 593.796 186.583 591.753 185.847C589.1 184.885 586.244 184.616 583.458 185.068C580.681 185.571 578.116 186.886 576.086 188.845C574.504 190.327 573.724 191.447 573.636 191.392C573.753 191.088 573.92 190.806 574.13 190.558C574.633 189.846 575.196 189.177 575.811 188.56C577.833 186.417 580.491 184.981 583.392 184.464C586.273 183.994 589.229 184.332 591.929 185.441C592.743 185.766 593.523 186.171 594.258 186.649C594.73 187.033 594.994 187.253 594.972 187.286Z" fill="#FF9A6C"/>
<path d="M483.556 89.4431C483.556 82.2512 483.556 75.0154 482.304 67.9223C481.051 60.8292 478.579 53.8349 474.119 48.1583C473.437 47.3018 468.241 41.7789 467.241 42.2071C466.527 42.5255 470.394 47.9936 470.229 48.7951C468.647 56.0639 470.054 63.7389 472.91 70.6124C475.748 77.2686 479.318 83.5881 483.556 89.4541" fill="#263238"/>
<path d="M475.723 63.1021C470.724 45.7537 456.463 34.2027 439.247 39.6817L437.687 40.2746C430.112 43.1816 423.909 48.8313 420.312 56.1004C416.715 63.3695 415.987 71.7253 418.273 79.5062C422.668 94.5158 427.766 111.041 430.853 118.815C437.269 134.911 454.42 131.222 454.42 131.222L465.121 155.817L499.179 138.37L475.723 63.1021Z" fill="#FFBF9D"/>
<path d="M454.496 131.343C461.958 128.464 468.439 123.511 473.174 117.069C473.174 117.069 473.657 132.188 456.946 136.932L454.496 131.343Z" fill="#FF9A6C"/>
<path d="M429.809 94.0876C430.039 94.6867 430.494 95.1724 431.077 95.4411C431.66 95.7099 432.325 95.7403 432.93 95.526C433.232 95.4371 433.513 95.2887 433.757 95.0894C434.001 94.8902 434.203 94.6442 434.35 94.3659C434.498 94.0876 434.588 93.7826 434.616 93.469C434.643 93.1553 434.608 92.8392 434.512 92.5394C434.273 91.9481 433.816 91.4717 433.234 91.2098C432.653 90.9479 431.993 90.9207 431.391 91.134C431.093 91.2232 430.815 91.3705 430.574 91.5675C430.332 91.7644 430.132 92.0072 429.985 92.2817C429.838 92.5563 429.747 92.8572 429.717 93.1671C429.687 93.477 429.718 93.7899 429.809 94.0876Z" fill="#263238"/>
<path d="M424.349 84.8864C424.756 85.084 426.008 83.1186 428.502 82.1633C430.996 81.2081 433.292 81.7681 433.435 81.3618C433.523 81.1751 433.017 80.7359 432.007 80.4614C430.644 80.1307 429.212 80.2304 427.909 80.7469C426.614 81.2343 425.509 82.1231 424.756 83.2833C424.206 84.1617 424.162 84.8095 424.349 84.8864Z" fill="#263238"/>
<path d="M451.069 86.6322C451.292 87.2375 451.744 87.7315 452.327 88.0085C452.91 88.2855 453.578 88.3236 454.189 88.1145C454.492 88.0257 454.775 87.8769 455.02 87.6769C455.265 87.4769 455.467 87.2298 455.614 86.9503C455.762 86.6707 455.852 86.3644 455.879 86.0495C455.906 85.7345 455.869 85.4174 455.771 85.117C455.547 84.5116 455.096 84.0176 454.513 83.7406C453.93 83.4637 453.261 83.4256 452.651 83.6347C452.348 83.7248 452.066 83.8744 451.822 84.0747C451.578 84.275 451.377 84.5219 451.229 84.8011C451.082 85.0803 450.992 85.386 450.964 85.7005C450.937 86.0149 450.972 86.3317 451.069 86.6322Z" fill="#263238"/>
<path d="M449.091 76.5526C449.497 76.7502 450.75 74.7738 453.244 73.8295C455.738 72.8852 458.023 73.4342 458.177 73.017C458.265 72.8413 457.759 72.4021 456.749 72.1276C455.387 71.7984 453.956 71.8942 452.651 72.4021C451.354 72.8971 450.247 73.7886 449.486 74.9495C448.959 75.8279 448.904 76.4757 449.091 76.5526Z" fill="#263238"/>
<path d="M447.509 99.0725C447.509 98.9188 445.817 99.2482 443.191 99.8851C442.532 100.072 441.884 100.171 441.609 99.7753C441.298 99.1427 441.194 98.428 441.312 97.733C441.312 95.9762 441.312 94.1206 441.312 92.1881C441.312 84.3044 440.994 77.9141 440.675 77.9141C440.357 77.9141 440.126 84.3154 440.159 92.1881C440.159 94.1315 440.159 95.9762 440.225 97.744C440.126 98.6611 440.348 99.5841 440.851 100.357C441.031 100.545 441.251 100.689 441.494 100.781C441.738 100.872 441.998 100.907 442.257 100.884C442.633 100.84 443.001 100.752 443.356 100.621C445.982 99.7972 447.553 99.2153 447.509 99.0725Z" fill="#263238"/>
<path d="M455.485 97.9855C455.068 98.1173 456.1 100.807 454.529 103.607C452.958 106.407 449.97 107.22 450.135 107.604C450.135 107.791 450.981 107.879 452.2 107.45C453.776 106.87 455.101 105.76 455.947 104.31C456.749 102.897 456.973 101.229 456.573 99.6545C456.221 98.4467 455.661 97.8977 455.485 97.9855Z" fill="#263238"/>
<path d="M445.356 66.418C445.861 67 448.223 65.7263 451.277 64.9577C454.332 64.1891 456.99 64.0793 457.144 63.3326C457.21 62.9703 456.551 62.4982 455.353 62.2346C453.775 61.9089 452.142 61.9578 450.585 62.3774C449.027 62.7616 447.583 63.5147 446.377 64.5734C445.465 65.3969 445.136 66.1435 445.356 66.418Z" fill="#263238"/>
<path d="M422.207 76.2341C422.866 76.6294 424.349 75.3887 426.403 74.5762C428.458 73.7636 430.348 73.4782 430.523 72.7425C430.589 72.3911 430.095 71.93 429.128 71.6445C427.86 71.4073 426.55 71.5471 425.361 72.0468C424.171 72.5464 423.155 73.3839 422.437 74.4554C421.888 75.3667 421.888 76.0365 422.207 76.2341Z" fill="#263238"/>
<path d="M479.019 75.5863C479.249 75.3557 488.907 68.0321 492.763 79.2207C496.619 90.4093 484.644 92.0124 484.512 91.694C484.38 91.3755 479.019 75.5863 479.019 75.5863Z" fill="#FFBF9D"/>
<path d="M486.457 86.2698C486.457 86.2698 486.698 86.3357 487.083 86.3687C487.616 86.4089 488.145 86.2395 488.555 85.8965C489.577 85.0511 489.928 82.8331 489.28 80.7908C488.983 79.8275 488.481 78.9398 487.808 78.1886C487.58 77.877 487.281 77.6253 486.934 77.455C486.588 77.2848 486.205 77.2012 485.819 77.2114C485.578 77.238 485.351 77.3441 485.176 77.513C485.002 77.6819 484.888 77.9041 484.853 78.1447C484.853 78.507 484.962 78.7046 484.907 78.7486C484.853 78.7925 484.6 78.6388 484.534 78.1447C484.494 77.8447 484.564 77.5404 484.732 77.2882C484.959 76.9492 485.31 76.7127 485.71 76.6294C486.201 76.5608 486.701 76.6198 487.163 76.8005C487.625 76.9813 488.032 77.2778 488.346 77.6615C489.165 78.4617 489.77 79.4547 490.104 80.5493C490.818 82.8221 490.401 85.3366 488.94 86.3687C488.67 86.5593 488.362 86.6869 488.037 86.742C487.711 86.7971 487.378 86.7784 487.061 86.6871C486.566 86.5334 486.424 86.3028 486.457 86.2698Z" fill="#FF9A6C"/>
<path d="M419.306 58.4575C417.109 58.0732 420.614 50.3433 424.393 46.8187C430.106 41.4715 439.774 36.1132 446.608 35.7728C454.815 35.3666 462.297 36.9916 468.362 42.5365C474.337 48.2483 478.68 55.4499 480.941 63.3985C481.843 65.7518 482.097 68.3034 481.677 70.7881C480.941 73.7966 478.469 76.3769 479.755 79.7587C480.008 80.3639 480.138 81.0133 480.138 81.6692C480.138 82.3252 480.008 82.9746 479.755 83.5798C478.436 86.4565 475.228 85.2487 473.382 83.5798C469.427 80.0222 467.373 74.8616 465.461 69.8987C464.099 66.3741 462.714 62.7617 462.561 58.9846C462.484 56.9313 462.769 54.8671 462.561 52.8138C462.525 51.7827 462.265 50.7718 461.801 49.8505C461.336 48.9293 460.677 48.1197 459.869 47.4775C459.479 47.235 459.067 47.0292 458.638 46.8626C456.612 46.0256 454.398 45.7431 452.226 46.0441C450.054 46.3451 448.001 47.2189 446.278 48.5755C440.708 52.9675 431.04 59.9288 427.491 58.743C422.393 57.0191 420.734 55.3392 420.734 55.3392L419.306 58.4575Z" fill="#263238"/>
<path d="M402.365 162.592C402.365 162.592 400.761 158.068 406.199 151.985C411.637 145.902 454.738 133.956 454.738 133.956C454.738 133.956 470.405 151.689 483.963 139.578C493.851 130.794 494.18 122.01 494.18 122.01H533.183L538.05 162.054L522.504 162.142L402.365 162.592Z" fill="#00ACE2"/>
<path d="M526.096 121.999C526.096 121.999 536.27 119.946 545.565 124.195C561.177 131.277 588.303 153.841 588.303 153.841L555.343 180.906L532.491 162.175L526.096 121.999Z" fill="#00ACE2"/>
<path d="M540.269 168.642C540.118 168.587 539.974 168.513 539.841 168.422C539.577 168.258 539.182 168.016 538.742 167.676C537.373 166.727 536.076 165.677 534.864 164.535C533.047 162.849 531.408 160.98 529.975 158.957C528.152 156.492 526.909 153.647 526.338 150.635C525.24 144.244 526.195 138.183 528.261 134.45C529.052 132.961 530.145 131.652 531.469 130.607C531.836 130.339 532.222 130.097 532.623 129.882C532.886 129.729 533.04 129.652 533.051 129.674C533.062 129.696 532.524 130.069 531.601 130.772C530.37 131.856 529.356 133.164 528.612 134.626C526.701 138.304 525.778 144.255 526.899 150.514C527.457 153.446 528.653 156.22 530.403 158.639C531.796 160.652 533.382 162.523 535.139 164.228C536.322 165.394 537.569 166.494 538.874 167.522C539.359 167.87 539.824 168.244 540.269 168.642Z" fill="#263238"/>
<path d="M532.458 162.076C532.458 162.23 505.606 162.471 472.482 162.603C439.357 162.735 412.494 162.713 412.494 162.548C412.494 162.383 439.346 162.164 472.482 162.032C505.617 161.9 532.458 161.911 532.458 162.076Z" fill="#263238"/>
<path d="M388.313 156.597C388.39 156.761 388.456 156.926 388.521 157.091C388.792 157.87 388.954 158.683 389.005 159.506C389.001 159.895 389.02 160.284 389.06 160.67C389.148 160.905 389.255 161.133 389.378 161.351C389.861 162.906 390.007 164.545 389.807 166.16C389.6 167.923 389.909 169.708 390.697 171.299C391.62 172.814 393.762 173.704 395.223 172.693C395.153 173.252 395.289 173.818 395.607 174.283C395.925 174.748 396.402 175.081 396.948 175.219C397.502 175.338 398.076 175.313 398.617 175.145C399.158 174.978 399.646 174.674 400.036 174.264C400.809 173.438 401.341 172.417 401.574 171.31C401.596 171.971 401.875 172.598 402.35 173.059C402.825 173.519 403.46 173.778 404.123 173.78C404.784 173.749 405.427 173.552 405.991 173.206C406.556 172.861 407.024 172.379 407.353 171.804C407.987 170.643 408.362 169.358 408.451 168.038C408.625 166.341 408.893 164.655 409.253 162.987C409.253 162.987 410.912 163.262 411.67 163.328H411.89C412.556 162.499 413.089 161.573 413.472 160.583C414.571 158.387 415.34 157.025 416.142 155.092C416.757 153.621 417.142 152.139 416.23 151.184C414.033 148.867 409.726 153.577 409.726 153.577C409.111 151.93 404.112 151.667 403.134 153.852C402.738 152.644 402.892 151.952 401.914 151.14C401.436 150.725 400.866 150.428 400.251 150.274C399.637 150.119 398.995 150.111 398.377 150.25C397.752 150.4 397.196 150.756 396.797 151.26C396.399 151.763 396.181 152.386 396.179 153.028C395.645 152.206 394.874 151.564 393.969 151.185C393.063 150.807 392.065 150.711 391.103 150.909C389.953 151.19 388.948 151.886 388.28 152.864C387.949 153.344 387.708 153.879 387.566 154.445C387.488 154.656 387.447 154.879 387.445 155.103C387.463 155.203 387.496 155.3 387.544 155.389C387.829 155.784 388.115 156.158 388.313 156.597Z" fill="#FFBF9D"/>
<path d="M383.028 153.402C382.486 153.341 381.936 153.399 381.419 153.572C380.901 153.744 380.426 154.027 380.029 154.401C379.231 155.628 378.9 157.101 379.095 158.551C380.6 158.837 381.38 158.903 382.896 159.188C383.215 159.243 383.479 159.188 383.742 159.353C384.434 159.847 384.325 161.549 384.599 162.317C384.896 162.997 385.44 163.538 386.122 163.83C386.804 164.122 387.572 164.142 388.269 163.887C388.952 163.593 389.537 163.111 389.955 162.496C390.374 161.882 390.608 161.161 390.631 160.418C390.641 158.92 390.093 157.471 389.093 156.355C388.34 155.471 387.413 154.753 386.37 154.244C385.326 153.736 384.188 153.449 383.028 153.402Z" fill="#FFBF9D"/>
<path d="M396.245 152.622C396.531 152.622 396.531 157.157 396.245 162.713C395.959 168.269 395.498 172.759 395.223 172.748C394.949 172.737 394.938 168.214 395.223 162.658C395.509 157.102 395.97 152.556 396.245 152.622Z" fill="#FF9A6C"/>
<path d="M403.211 153.522C403.485 153.522 403.848 157.629 403.408 162.68C402.969 167.73 401.914 171.727 401.651 171.672C401.387 171.617 401.969 167.577 402.387 162.592C402.804 157.607 402.892 153.533 403.211 153.522Z" fill="#FF9A6C"/>
<path d="M409.978 154.456C410.264 154.456 410.385 157.87 409.847 162.021C409.308 166.171 408.682 169.454 408.418 169.432C408.155 169.41 408.308 166.007 408.836 161.889C409.363 157.772 409.693 154.445 409.978 154.456Z" fill="#FF9A6C"/>
<path d="M385.204 154.104C385.204 153.984 385.929 153.819 386.972 154.302C388.288 154.976 389.286 156.139 389.752 157.541C390.241 158.873 390.475 160.284 390.444 161.702C390.323 162.954 389.411 163.317 389.345 163.152C389.28 162.987 389.763 162.603 389.675 161.68C389.491 160.394 389.182 159.129 388.752 157.903C388.341 156.71 387.574 155.672 386.555 154.928C385.83 154.379 385.193 154.258 385.204 154.104Z" fill="#FF9A6C"/>
<path d="M551.706 502.006C556.826 498.682 560.879 493.955 563.381 488.39C565.882 482.825 566.727 476.657 565.813 470.625L578.283 462.456L580.052 461.358L678.789 396.685C683.55 399.711 689.031 401.416 694.67 401.622C700.308 401.829 705.9 400.531 710.87 397.862C715.84 395.193 720.009 391.249 722.948 386.436C725.887 381.623 727.49 376.114 727.592 370.476L721.824 369.477L715.54 378.261L701.092 375.22L693.028 362.867L696.071 348.417L708.08 340.589L699.95 338.459C691.336 335.922 686.557 337.986 678.449 343.279C673.348 346.604 669.311 351.325 666.82 356.879C664.328 362.434 663.487 368.586 664.397 374.605L564.012 440.364L560.902 442.384L551.388 448.61C546.242 445.352 540.268 443.641 534.176 443.682C528.085 443.723 522.134 445.514 517.033 448.84C508.957 454.1 498.07 465.047 496.894 473.908L502.629 474.852L514.637 467.023L529.096 470.065L537.16 482.417L534.117 496.867L521.186 500.512L522.097 504.696C526.877 506.699 532.075 507.501 537.237 507.032C542.399 506.564 547.367 504.838 551.706 502.006Z" fill="#E0E0E0"/>
<g opacity="0.3">
<path opacity="0.3" d="M551.706 502.006C556.826 498.682 560.879 493.955 563.381 488.39C565.882 482.825 566.727 476.657 565.813 470.625L578.283 462.456L580.052 461.358L678.789 396.685C683.55 399.711 689.031 401.416 694.67 401.622C700.308 401.829 705.9 400.531 710.87 397.862C715.84 395.193 720.009 391.249 722.948 386.436C725.887 381.623 727.49 376.114 727.592 370.476L721.824 369.477L715.54 378.261L701.092 375.22L693.028 362.867L696.071 348.417L708.08 340.589L699.95 338.459C691.336 335.922 686.557 337.986 678.449 343.279C673.348 346.604 669.311 351.325 666.82 356.879C664.328 362.434 663.487 368.586 664.397 374.605L564.012 440.364L560.902 442.384L551.388 448.61C546.242 445.352 540.268 443.641 534.176 443.682C528.085 443.723 522.134 445.514 517.033 448.84C508.957 454.1 498.07 465.047 496.894 473.908L502.629 474.852L514.637 467.023L529.096 470.065L537.16 482.417L534.117 496.867L521.186 500.512L522.097 504.696C526.877 506.699 532.075 507.501 537.237 507.032C542.399 506.564 547.367 504.838 551.706 502.006Z" fill="black"/>
</g>
<path d="M545.971 501.061C551.083 497.733 555.126 493.003 557.618 487.438C560.11 481.872 560.945 475.708 560.023 469.681L572.504 461.5L574.262 460.402L672.999 395.719C677.762 398.756 683.249 400.468 688.895 400.678C694.541 400.888 700.14 399.589 705.116 396.915C710.091 394.24 714.263 390.288 717.2 385.465C720.137 380.641 721.733 375.122 721.824 369.477L709.739 377.317L695.291 374.275L687.227 361.912L690.27 347.473L702.29 339.633C697.088 337.451 691.398 336.694 685.806 337.438C680.214 338.182 674.921 340.401 670.471 343.867C666.021 347.334 662.576 351.922 660.489 357.16C658.402 362.398 657.748 368.097 658.596 373.671L558.211 439.442L555.145 441.396L545.631 447.633C540.868 444.617 535.389 442.922 529.754 442.722C524.119 442.523 518.533 443.826 513.569 446.497C508.605 449.169 504.442 453.113 501.508 457.924C498.573 462.736 496.973 468.241 496.872 473.875L508.891 466.035L523.339 469.077L531.403 481.44L528.36 495.879L516.373 503.751C521.151 505.753 526.348 506.554 531.507 506.085C536.667 505.616 541.633 503.891 545.971 501.061Z" fill="#E0E0E0"/>
<path d="M545.971 501.061C545.971 501.061 545.4 501.435 544.269 502.159C542.536 503.13 540.724 503.953 538.852 504.619C531.495 507.134 523.471 506.868 516.296 503.872L516.099 503.795L516.285 503.675L528.294 495.824L528.228 495.901C529.162 491.454 530.173 486.612 531.249 481.462V481.583C528.733 477.718 526.02 473.567 523.174 469.23L523.284 469.296L508.826 466.277H508.968L496.949 474.127L496.641 474.325V473.963C496.721 468.569 498.17 463.285 500.853 458.604C503.535 453.924 507.364 450.001 511.979 447.204C516.935 444.151 522.637 442.522 528.459 442.494C534.563 442.482 540.545 444.203 545.708 447.457H545.455L658.497 373.43L658.376 373.693C657.496 367.736 658.299 361.651 660.694 356.125C662.997 350.854 666.678 346.3 671.351 342.942C676.024 339.584 681.516 337.546 687.249 337.042C692.427 336.592 697.636 337.402 702.433 339.403L702.905 339.611L702.477 339.886L690.457 347.726L690.578 347.55C689.56 352.403 688.545 357.216 687.535 361.989V361.791L695.599 374.144L695.434 374.034L709.882 377.075H709.684L721.703 369.246L722.121 368.983V369.466C722.009 375.337 720.282 381.063 717.129 386.018C713.975 390.972 709.518 394.963 704.245 397.553C699.236 400.058 693.653 401.194 688.062 400.847C682.663 400.488 677.438 398.794 672.856 395.917H673.109L560.067 469.812V469.691C560.825 474.899 560.304 480.212 558.551 485.173C557.27 488.78 555.349 492.128 552.882 495.055C551.374 496.817 549.684 498.415 547.839 499.821C546.554 500.71 545.895 501.149 545.895 501.149L547.795 499.766C549.62 498.344 551.295 496.74 552.794 494.978C555.692 491.509 557.818 487.462 559.031 483.108C560.243 478.754 560.514 474.191 559.826 469.724V469.648H559.892L672.801 395.565L672.933 395.489L673.065 395.565C677.575 398.401 682.723 400.065 688.04 400.408C693.546 400.761 699.048 399.647 703.982 397.18C709.152 394.62 713.52 390.69 716.606 385.818C719.693 380.946 721.38 375.319 721.483 369.554L721.879 369.773L709.86 377.613L709.772 377.668H709.662L695.214 374.638H695.104V374.55L687.029 362.186L686.974 362.098V361.989C687.978 357.209 688.992 352.396 690.018 347.55V347.44L690.105 347.374L702.125 339.546V340.018C697.406 338.034 692.274 337.23 687.174 337.676C682.074 338.122 677.159 339.804 672.856 342.576C667.701 345.929 663.645 350.72 661.189 356.356C658.831 361.796 658.044 367.786 658.914 373.649V373.814L658.772 373.913L545.763 447.863L545.631 447.94L545.499 447.863C540.401 444.643 534.489 442.944 528.459 442.966C522.854 442.998 517.358 444.516 512.532 447.365C507.707 450.214 503.724 454.293 500.992 459.184C498.491 463.696 497.133 468.751 497.037 473.908L496.729 473.743L508.815 465.914H508.891L523.339 468.967H523.405V469.033L531.458 481.396V481.451V481.517C530.359 486.656 529.338 491.498 528.393 495.956V496.011L516.307 503.828V503.631C523.432 506.621 531.401 506.921 538.731 504.476C540.605 503.828 542.42 503.024 544.159 502.072L545.971 501.061Z" fill="#263238"/>
<path d="M668.55 391.305C668.55 391.305 668.275 391.163 667.835 390.844C667.215 390.372 666.624 389.862 666.067 389.318C662.36 385.705 659.839 381.053 658.837 375.977C658.68 375.217 658.577 374.446 658.53 373.671C658.487 373.391 658.487 373.106 658.53 372.826C658.618 372.826 658.761 374.012 659.211 375.9C659.809 378.352 660.717 380.717 661.914 382.939C663.115 385.154 664.592 387.209 666.308 389.054C667.671 390.46 668.605 391.228 668.55 391.305Z" fill="#263238"/>
<path d="M229.896 95.526H151.045C145.056 95.526 140.201 100.378 140.201 106.363V185.167C140.201 191.152 145.056 196.004 151.045 196.004H229.896C235.885 196.004 240.74 191.152 240.74 185.167V106.363C240.74 100.378 235.885 95.526 229.896 95.526Z" fill="#00ACE2"/>
<g opacity="0.3">
<path opacity="0.3" d="M229.896 95.526H151.045C145.056 95.526 140.201 100.378 140.201 106.363V185.167C140.201 191.152 145.056 196.004 151.045 196.004H229.896C235.885 196.004 240.74 191.152 240.74 185.167V106.363C240.74 100.378 235.885 95.526 229.896 95.526Z" fill="black"/>
</g>
<path d="M215.152 95.526H136.301C130.312 95.526 125.457 100.378 125.457 106.363V185.167C125.457 191.152 130.312 196.004 136.301 196.004H215.152C221.141 196.004 225.996 191.152 225.996 185.167V106.363C225.996 100.378 221.141 95.526 215.152 95.526Z" fill="#00ACE2"/>
<path d="M161.57 123.371C163.644 122.112 165.88 121.14 168.217 120.484L169.579 113.896L180.698 113.698L182.302 120.22C184.66 120.799 186.929 121.693 189.048 122.877L194.662 119.188L202.671 126.874L199.188 132.616C200.439 134.693 201.407 136.927 202.067 139.259L208.659 140.632L208.857 151.744L202.33 153.347C201.749 155.702 200.855 157.97 199.672 160.088L203.363 165.699L195.673 173.693L189.926 170.212C187.851 171.469 185.615 172.441 183.28 173.1L181.906 179.688L170.788 179.885L169.195 173.396C166.839 172.81 164.571 171.917 162.449 170.739L156.835 174.417L148.836 166.731L152.319 161C151.061 158.922 150.089 156.684 149.43 154.346L142.838 152.984L142.64 141.873L149.166 140.27C149.75 137.915 150.644 135.648 151.825 133.528L148.144 127.917L155.835 119.913L161.581 123.404L161.57 123.371ZM167.492 138.172C165.852 139.869 164.752 142.013 164.332 144.334C163.911 146.655 164.189 149.049 165.13 151.212C166.071 153.375 167.633 155.211 169.618 156.487C171.603 157.763 173.922 158.422 176.282 158.38C178.642 158.339 180.937 157.599 182.876 156.254C184.815 154.909 186.311 153.019 187.175 150.824C188.039 148.629 188.233 146.228 187.731 143.923C187.229 141.618 186.055 139.514 184.356 137.876C182.08 135.681 179.025 134.48 175.863 134.535C172.7 134.591 169.689 135.899 167.492 138.172Z" fill="white"/>
<g opacity="0.3">
<path opacity="0.3" d="M203.407 95.526L125.457 157.75V169.861L218.404 95.526H203.407Z" fill="white"/>
</g>
<g opacity="0.3">
<path opacity="0.3" d="M125.556 183.981L225.996 106.111V127.972L136.048 196.048C134.66 196.047 133.286 195.771 132.006 195.237C130.725 194.703 129.562 193.921 128.585 192.936C127.608 191.951 126.835 190.783 126.312 189.499C125.788 188.214 125.524 186.839 125.534 185.452L125.556 183.981Z" fill="white"/>
</g>
</g>
<defs>
<filter id="filter0_d_13_1112" x="-4" y="0" width="832" height="557" filterUnits="userSpaceOnUse" color-interpolation-filters="sRGB">
<feFlood flood-opacity="0" result="BackgroundImageFix"/>
<feColorMatrix in="SourceAlpha" type="matrix" values="0 0 0 0 0 0 0 0 0 0 0 0 0 0 0 0 0 0 127 0" result="hardAlpha"/>
<feOffset dy="4"/>
<feGaussianBlur stdDeviation="2"/>
<feComposite in2="hardAlpha" operator="out"/>
<feColorMatrix type="matrix" values="0 0 0 0 0 0 0 0 0 0 0 0 0 0 0 0 0 0 0.25 0"/>
<feBlend mode="normal" in2="BackgroundImageFix" result="effect1_dropShadow_13_1112"/>
<feBlend mode="normal" in="SourceGraphic" in2="effect1_dropShadow_13_1112" result="shape"/>
</filter>
</defs>
</svg>
